HIERARCHY
ROOT root
{
	OFFSET 0.000000 0.000000 0.000000
	CHANNELS 6 Xposition Yposition Zposition Zrotation Yrotation Xrotation
	JOINT lhip
	{
		OFFSET 0.058581 -0.082280 -0.017664
		CHANNELS 3 Zrotation Yrotation Xrotation
		JOINT lknee
		{
			OFFSET 0.043451 -0.386469 0.008037
			CHANNELS 3 Zrotation Yrotation Xrotation
			JOINT lankle
			{
				OFFSET -0.014790 -0.426874 -0.037428
				CHANNELS 3 Zrotation Yrotation Xrotation
				JOINT ltoe
				{
					OFFSET 0.041054 -0.060286 0.122042
					CHANNELS 3 Zrotation Yrotation Xrotation
					End Site
					{
						OFFSET 0.000000 0.000000 0.000000
					}
				}
			}
		}
	}
	JOINT rhip
	{
		OFFSET -0.060310 -0.090513 -0.013543
		CHANNELS 3 Zrotation Yrotation Xrotation
		JOINT rknee
		{
			OFFSET -0.043257 -0.383688 -0.004843
			CHANNELS 3 Zrotation Yrotation Xrotation
			JOINT rankle
			{
				OFFSET 0.019056 -0.420046 -0.034562
				CHANNELS 3 Zrotation Yrotation Xrotation
				JOINT rtoe
				{
					OFFSET -0.034840 -0.062106 0.130323
					CHANNELS 3 Zrotation Yrotation Xrotation
					End Site
					{
						OFFSET 0.000000 0.000000 0.000000
					}
				}
			}
		}
	}
	JOINT lowerback
	{
		OFFSET 0.004439 0.124404 -0.038385
		CHANNELS 3 Zrotation Yrotation Xrotation
		JOINT upperback
		{
			OFFSET 0.004488 0.137956 0.026820
			CHANNELS 3 Zrotation Yrotation Xrotation
			JOINT chest
			{
				OFFSET -0.002265 0.056032 0.002855
				CHANNELS 3 Zrotation Yrotation Xrotation
				JOINT lowerneck
				{
					OFFSET -0.013390 0.211636 -0.033468
					CHANNELS 3 Zrotation Yrotation Xrotation
					JOINT upperneck
					{
						OFFSET 0.010113 0.088937 0.050410
						CHANNELS 3 Zrotation Yrotation Xrotation
						End Site
						{
							OFFSET 0.000000 0.000000 0.000000
						}
					}
				}
				JOINT lclavicle
				{
					OFFSET 0.071702 0.114000 -0.018898
					CHANNELS 3 Zrotation Yrotation Xrotation
					JOINT lshoulder
					{
						OFFSET 0.122921 0.045205 -0.019046
						CHANNELS 3 Zrotation Yrotation Xrotation
						JOINT lelbow
						{
							OFFSET 0.255332 -0.015649 -0.022946
							CHANNELS 3 Zrotation Yrotation Xrotation
							JOINT lwrist
							{
								OFFSET 0.265709 0.012698 -0.007375
								CHANNELS 3 Zrotation Yrotation Xrotation
								End Site
								{
									OFFSET 0.000000 0.000000 0.000000
								}
							}
						}
					}
				}
				JOINT rclavicle
				{
					OFFSET -0.082954 0.112472 -0.023707
					CHANNELS 3 Zrotation Yrotation Xrotation
					JOINT rshoulder
					{
						OFFSET -0.113228 0.046853 -0.008472
						CHANNELS 3 Zrotation Yrotation Xrotation
						JOINT relbow
						{
							OFFSET -0.260127 -0.014369 -0.031269
							CHANNELS 3 Zrotation Yrotation Xrotation
							JOINT rwrist
							{
								OFFSET -0.269108 0.006794 -0.006027
								CHANNELS 3 Zrotation Yrotation Xrotation
								End Site
								{
									OFFSET 0.000000 0.000000 0.000000
								}
							}
						}
					}
				}
			}
		}
	}
}
MOTION
Frames: 11
Frame Time: 0.033333
-1.946535 -0.492086 1.011047 -150.945559 -2.222249 86.084255 3.032238 -9.369804 -3.928218 -6.048331 -30.114179 10.391189 -0.855973 -4.520105 -11.161838 0.000000 -0.000000 0.000000 -1.089620 7.339386 -3.702428 3.109097 17.389639 25.587064 4.387797 1.706404 -14.890721 0.000000 -0.000000 0.000000 -2.495783 3.521242 13.763588 2.697404 1.760919 -0.544133 -0.179768 1.109712 1.067710 8.414429 -5.771690 -4.438033 -2.563769 -18.346928 14.366474 -29.235448 8.676127 -1.424956 -53.683382 -4.798344 11.627691 9.027004 -25.108383 3.122638 -3.741756 -2.417966 -8.543496 30.952758 3.200995 -2.003571 49.422667 10.804772 14.117335 -13.602345 22.693624 -10.144457 7.204783 3.112278 -7.992735 
-1.961052 -0.494866 1.009875 -153.592064 -2.406088 86.701946 2.190942 -7.446467 -3.686186 -5.954312 -29.381835 9.436225 -0.404165 -3.915671 -10.212758 0.000000 -0.000000 0.000000 -1.830309 6.913905 -5.568093 3.090319 16.896867 27.435263 4.105391 0.885492 -15.252195 0.000000 -0.000000 0.000000 -3.006045 2.960214 13.947309 2.685913 1.719406 -1.167860 -0.363792 0.649432 1.242770 8.674983 -6.735702 -4.699103 -2.423833 -19.158083 14.680561 -29.180597 8.046520 -1.170876 -52.897146 -5.343675 11.438600 8.728821 -23.985856 3.067779 -3.621374 -2.271928 -7.784616 31.280868 3.097340 -1.800361 48.794507 10.298666 13.745874 -13.261282 20.643461 -10.782254 6.791583 2.327987 -7.514660 
-1.972765 -0.497666 1.011862 -157.226079 -2.328693 86.944016 1.924705 -6.171594 -2.723277 -5.747789 -27.582309 8.073085 -0.385880 -3.540417 -9.412574 0.000000 -0.000000 0.000000 -2.049735 6.180453 -6.856737 2.456690 14.091254 28.312315 4.430052 -0.607075 -14.674719 0.000000 -0.000000 0.000000 -3.649912 2.091692 14.247077 2.613309 1.074262 -1.067188 -0.264796 1.143102 0.936655 8.867433 -6.965169 -4.514383 -2.322305 -19.583848 14.559564 -28.750042 8.126819 -1.233471 -52.651790 -6.030733 10.789420 8.671205 -22.525565 3.009531 -4.276138 -2.050543 -6.717167 31.356504 3.672649 -1.335871 48.974476 10.219156 13.213089 -13.325105 18.138881 -11.558565 6.732817 1.957619 -6.917362 
-1.983619 -0.499674 1.014148 -161.406909 -2.177984 87.130545 1.840765 -5.531672 -1.357890 -5.604233 -25.127829 6.312585 0.653576 -2.504858 -9.328390 0.000000 -0.000000 0.000000 -2.211928 4.892194 -7.796658 1.564572 9.849032 28.393113 4.376254 -3.713206 -14.670172 0.000000 -0.000000 0.000000 -3.712242 1.818735 14.454876 2.266391 1.202173 -1.237321 -0.304085 0.996570 0.931713 8.911884 -7.546440 -4.351593 -2.420414 -19.190244 14.481685 -28.304485 7.913790 -0.879971 -52.343922 -6.686369 10.245663 9.140706 -21.613888 3.030603 -4.745283 -1.744343 -6.859758 30.959035 3.707496 -1.022993 49.658428 10.022214 12.741513 -13.051438 16.087542 -12.954367 6.207249 1.863029 -8.355204 
-1.993836 -0.501582 1.015212 -166.406993 -1.976612 87.421477 1.221527 -4.275422 -0.364137 -4.779399 -22.530529 5.034730 1.276088 -0.961620 -8.643005 0.000000 -0.000000 0.000000 -2.231076 3.207891 -8.863759 0.577676 4.508269 28.199335 4.114094 -6.865409 -15.112830 0.000000 -0.000000 0.000000 -3.442368 1.713346 14.720392 1.687898 1.574989 -1.666785 -0.251786 1.238668 0.890168 7.962771 -7.417579 -3.803027 -2.021631 -18.572925 14.079614 -27.893934 7.217955 -0.350188 -51.983085 -6.988437 9.408248 9.418975 -20.895585 2.070437 -4.515627 -1.652783 -6.998040 30.736194 3.676591 -0.721271 49.706186 9.218553 12.182877 -12.635016 15.898454 -13.572977 5.569786 1.520003 -8.663148 
-2.002078 -0.501480 1.015545 -171.628915 -2.005716 87.606103 0.859297 -3.459807 0.332179 -5.159485 -19.783678 4.719376 2.254079 0.369129 -8.680480 0.000000 -0.000000 0.000000 -3.336306 0.879929 -9.109714 0.894892 -0.420464 27.448855 4.330977 -8.917147 -15.712759 0.000000 -0.000000 0.000000 -3.809263 1.859456 14.715181 1.460028 1.917865 -1.996929 0.026146 0.948333 0.968298 7.676058 -7.806045 -3.416173 -1.984103 -17.933849 13.734802 -27.907443 7.256285 0.235731 -51.313230 -6.977674 8.303769 10.030127 -21.365192 1.346350 -5.184347 -1.448208 -7.068512 30.534071 3.729739 -0.150410 49.601406 8.747718 12.110883 -12.787241 15.674003 -12.421892 6.803535 1.620624 -6.529443 
-2.008409 -0.500839 1.015215 -176.851384 -1.623000 87.677508 0.749467 -2.293478 0.742746 -5.106538 -17.136229 5.092355 3.272893 1.815856 -9.344529 0.000000 -0.000000 0.000000 -3.778034 -1.522462 -8.942440 1.768703 -6.565362 26.560334 3.981864 -13.424258 -17.992245 0.000000 -0.000000 0.000000 -3.692289 1.781794 14.567780 1.233423 1.845105 -2.188848 0.133952 0.915357 1.373903 7.398609 -7.347409 -3.428624 -2.098019 -17.037572 13.699172 -27.886469 7.649536 0.281260 -50.488240 -7.063887 7.315080 10.160773 -21.703330 1.203817 -5.356930 -1.395706 -7.300269 30.850180 3.667213 -0.340476 49.868095 8.783755 11.761631 -13.472331 14.877446 -11.930107 7.228305 2.009855 -5.287315 
-2.012115 -0.501944 1.014713 176.962235 -1.329772 87.871248 0.726781 -1.725393 1.078390 -5.378181 -13.872696 5.046059 4.297339 3.999301 -9.257119 0.000000 -0.000000 0.000000 -1.796519 -0.942705 -8.228423 -0.246604 -7.590912 25.055295 1.928267 -14.471062 -16.533871 0.000000 -0.000000 0.000000 -4.375688 1.743308 14.274122 1.216352 2.121537 -2.390440 0.792167 0.892400 1.746150 6.394967 -7.096357 -3.148839 -1.832807 -15.542855 13.403999 -28.021136 8.025045 0.355194 -49.941153 -6.648301 6.455823 11.259530 -22.436419 0.110722 -5.849655 -1.394964 -8.072046 30.725104 4.053653 0.456027 49.530707 8.766394 12.382594 -14.163123 16.141740 -10.456473 8.021523 1.514766 -4.056821 
-2.015601 -0.500334 1.014882 171.172987 -1.278776 87.418390 0.341532 -0.037070 2.075482 -5.292825 -11.213620 5.215967 5.086967 5.503348 -9.696698 0.000000 -0.000000 0.000000 -2.040527 -2.456211 -7.138489 0.188728 -10.127459 24.806190 1.489047 -15.318622 -16.123694 0.000000 -0.000000 0.000000 -3.957116 1.664633 14.619914 0.556344 2.361180 -2.775752 0.221705 0.722513 1.824927 6.317493 -6.965220 -2.799095 -1.800424 -15.019975 13.589996 -27.326713 8.095001 0.488292 -48.918491 -6.211868 5.724867 10.931433 -22.175684 -0.289935 -4.673159 -1.342452 -8.475542 30.452632 3.428395 -0.230598 51.196685 8.671256 12.153367 -12.894557 16.927113 -11.940430 5.467642 1.805904 -6.599996 
-2.016983 -0.498337 1.013839 165.546472 -0.926945 87.077941 0.498609 1.816797 2.878779 -4.897642 -9.235644 5.301313 5.294773 6.276364 -9.128155 0.000000 -0.000000 0.000000 -1.899771 -3.957584 -6.308988 0.221799 -12.896654 24.740925 0.062413 -15.923697 -16.209155 0.000000 -0.000000 0.000000 -3.482600 1.573176 14.976576 0.180230 2.476277 -3.364366 -0.076410 0.638891 1.707201 5.700184 -7.133117 -2.080519 -1.418160 -14.567761 13.506873 -26.977545 8.091818 0.701060 -47.758115 -5.647292 4.648514 10.832461 -21.586690 -0.957761 -4.632669 -1.279949 -8.533278 29.960329 2.987023 -0.530912 52.259563 7.866385 11.742000 -12.137355 18.659924 -12.191387 5.568275 2.140391 -7.767655 
-2.016073 -0.497211 1.013087 160.402995 -0.659197 86.720364 0.602098 3.046542 3.720930 -4.589419 -7.503737 5.703978 5.737070 7.021376 -8.830303 0.000000 -0.000000 0.000000 -1.704049 -5.191446 -4.876479 0.824045 -13.555415 23.745729 -0.041418 -15.536855 -14.866390 0.000000 -0.000000 0.000000 -3.857037 1.440703 14.685008 0.359367 1.974875 -3.269748 0.175213 0.871545 1.438247 5.262854 -7.284708 -1.568065 -1.170878 -14.107710 13.270827 -26.324413 7.946858 1.449909 -46.994106 -5.342014 3.524642 10.864121 -21.028969 -1.093610 -5.089278 -0.933487 -9.393442 30.239398 2.633933 -0.555496 52.119477 7.670085 11.495889 -12.035204 19.204893 -10.794356 7.021608 1.999046 -6.850687 
